<?xml version="1.0" encoding="utf-8"?>
<!-- Generator: Adobe Adobe Illustrator 24.2.0, SVG Export Plug-In . SVG Version: 6.00 Build 0)  -->
<svg version="1.1" id="Layer_1" xmlns="http://www.w3.org/2000/svg" x="0px" y="0px"
	 viewBox="0 0 841.89 255.12" style="enable-background:new 0 0 841.89 255.12;" xml:space="preserve">
<style type="text/css">
	.st0{fill:#1F1C4E;}
	.st1{fill:#63ABD1;}
	.st2{fill:#F92849;}
	.st3{fill:#1D1B4D;}
	.st4{fill:#FFFFFF;}
	.st5{fill:#292877;}
</style>
<g>
	<g>
		<path class="st4" d="M309.47,159.67v-4.01c-2.51,3.01-7.35,5.01-12.54,5.01c-6.18,0-13.87-4.18-13.87-13.29
			c0-9.78,7.69-12.7,13.87-12.7c5.35,0,10.11,1.67,12.54,4.68v-5.1c0-3.51-3.01-5.85-8.19-5.85c-4.01,0-8.19,1.5-11.45,4.26
			l-4.6-8.11c5.18-4.43,12.12-6.27,18.3-6.27c9.69,0,18.8,3.59,18.8,16.13v25.24H309.47z M309.47,145.71
			c-1.34-1.84-4.35-2.84-7.19-2.84c-3.43,0-6.44,1.5-6.44,4.68c0,3.18,3.01,4.68,6.44,4.68c2.84,0,5.85-1,7.19-2.92V145.71z"/>
		<path class="st4" d="M348.35,118.3c8.69,0,14.12,3.84,16.55,7.44l-8.36,7.77c-1.59-2.34-4.18-3.84-7.61-3.84
			c-5.35,0-9.44,3.68-9.44,9.78s4.1,9.86,9.44,9.86c3.43,0,6.02-1.67,7.61-3.93l8.36,7.86c-2.42,3.51-7.86,7.44-16.55,7.44
			c-12.62,0-22.06-8.52-22.06-21.23C326.29,126.83,335.73,118.3,348.35,118.3z"/>
		<path class="st4" d="M385.75,118.3c11.95,0,20.64,8.78,20.64,22.48v2.76h-28.75c0.75,3.76,4.26,7.19,10.28,7.19
			c3.59,0,7.61-1.42,9.86-3.43l5.43,8.02c-4.01,3.59-10.7,5.35-16.88,5.35c-12.45,0-22.06-8.11-22.06-21.23
			C364.27,127.74,373.13,118.3,385.75,118.3z M377.47,135.18h16.63c-0.33-2.84-2.42-6.94-8.36-6.94
			C380.15,128.25,377.97,132.26,377.47,135.18z"/>
	</g>
	<g>
		<path class="st4" d="M431.71,145.63c3.01,2.67,9.44,5.35,14.21,5.35c3.84,0,5.43-1.25,5.43-3.01c0-2.09-2.76-2.84-6.94-3.51
			c-6.85-1.17-16.55-2.59-16.55-12.87c0-7.1,6.1-13.29,17.3-13.29c6.77,0,12.53,2.17,16.88,5.35l-4.93,8.52
			c-2.42-2.34-7.02-4.43-11.87-4.43c-3.01,0-5.1,1-5.1,2.76c0,1.84,2.17,2.51,6.43,3.26c6.85,1.17,17.05,2.84,17.05,13.54
			c0,7.69-6.77,13.37-18.39,13.37c-7.19,0-14.63-2.42-18.89-6.18L431.71,145.63z"/>
		<path class="st4" d="M472.24,148.8v-18.3h-6.69v-11.2h6.69v-11.03h12.79v11.03h8.19v11.2h-8.19v14.71c0,2.34,1.34,4.1,3.59,4.1
			c1.42,0,2.84-0.5,3.26-1l2.51,9.69c-1.59,1.5-4.76,2.67-9.53,2.67C476.67,160.67,472.24,156.58,472.24,148.8z"/>
		<path class="st4" d="M498.39,159.67V119.3h12.87v5.1c2.67-3.26,7.77-6.1,12.62-6.1v12.45c-0.75-0.25-1.84-0.42-3.18-0.42
			c-3.34,0-7.77,1.42-9.44,3.76v25.57H498.39z"/>
		<path class="st4" d="M551.97,159.67v-4.01c-2.51,3.01-7.35,5.01-12.54,5.01c-6.18,0-13.87-4.18-13.87-13.29
			c0-9.78,7.69-12.7,13.87-12.7c5.35,0,10.11,1.67,12.54,4.68v-5.1c0-3.51-3.01-5.85-8.19-5.85c-4.01,0-8.19,1.5-11.45,4.26
			l-4.6-8.11c5.18-4.43,12.12-6.27,18.3-6.27c9.69,0,18.8,3.59,18.8,16.13v25.24H551.97z M551.97,145.71
			c-1.34-1.84-4.35-2.84-7.19-2.84c-3.43,0-6.43,1.5-6.43,4.68c0,3.18,3.01,4.68,6.43,4.68c2.84,0,5.85-1,7.19-2.92V145.71z"/>
		<path class="st4" d="M575.12,148.8v-18.3h-6.69v-11.2h6.69v-11.03h12.79v11.03h8.19v11.2h-8.19v14.71c0,2.34,1.34,4.1,3.59,4.1
			c1.42,0,2.84-0.5,3.26-1l2.51,9.69c-1.59,1.5-4.76,2.67-9.53,2.67C579.54,160.67,575.12,156.58,575.12,148.8z"/>
		<path class="st4" d="M621.25,118.3c11.95,0,20.64,8.78,20.64,22.48v2.76h-28.75c0.75,3.76,4.26,7.19,10.28,7.19
			c3.59,0,7.61-1.42,9.86-3.43l5.43,8.02c-4.01,3.59-10.7,5.35-16.88,5.35c-12.45,0-22.06-8.11-22.06-21.23
			C599.77,127.74,608.63,118.3,621.25,118.3z M612.97,135.18h16.63c-0.33-2.84-2.42-6.94-8.36-6.94
			C615.65,128.25,613.48,132.26,612.97,135.18z"/>
		<path class="st4" d="M652.59,160.84c3.09,3.34,7.61,4.68,12.29,4.68c4.26,0,10.28-1.76,10.28-9.28v-3.09
			c-3.34,3.93-7.35,5.85-11.95,5.85c-9.86,0-17.8-6.77-17.8-20.39c0-13.29,7.69-20.31,17.8-20.31c4.51,0,8.69,1.76,11.95,5.77v-4.76
			h12.79v36.77c0,16.46-13.04,19.97-23.07,19.97c-6.94,0-12.7-1.76-17.89-6.02L652.59,160.84z M675.15,133.26
			c-1.59-2.17-5.01-3.59-7.69-3.59c-5.1,0-8.86,3.09-8.86,8.94c0,5.93,3.76,9.03,8.86,9.03c2.67,0,6.1-1.42,7.69-3.59V133.26z"/>
		<path class="st4" d="M693.2,106.85c0-4.1,3.26-7.35,7.35-7.35s7.35,3.26,7.35,7.35c0,4.09-3.26,7.35-7.35,7.35
			S693.2,110.95,693.2,106.85z M694.12,159.67V119.3h12.87v40.37H694.12z"/>
		<path class="st4" d="M733.32,118.3c11.95,0,20.64,8.78,20.64,22.48v2.76h-28.75c0.75,3.76,4.26,7.19,10.28,7.19
			c3.59,0,7.6-1.42,9.86-3.43l5.43,8.02c-4.01,3.59-10.7,5.35-16.88,5.35c-12.45,0-22.06-8.11-22.06-21.23
			C711.84,127.74,720.7,118.3,733.32,118.3z M725.04,135.18h16.63c-0.34-2.84-2.42-6.94-8.36-6.94
			C727.72,128.25,725.55,132.26,725.04,135.18z"/>
		<path class="st4" d="M762.24,145.63c3.01,2.67,9.44,5.35,14.21,5.35c3.84,0,5.43-1.25,5.43-3.01c0-2.09-2.76-2.84-6.94-3.51
			c-6.85-1.17-16.55-2.59-16.55-12.87c0-7.1,6.1-13.29,17.3-13.29c6.77,0,12.53,2.17,16.88,5.35l-4.93,8.52
			c-2.42-2.34-7.02-4.43-11.87-4.43c-3.01,0-5.1,1-5.1,2.76c0,1.84,2.17,2.51,6.43,3.26c6.85,1.17,17.05,2.84,17.05,13.54
			c0,7.69-6.77,13.37-18.39,13.37c-7.19,0-14.62-2.42-18.89-6.18L762.24,145.63z"/>
		<path class="st4" d="M796.32,105.14v9.06h-1.58v-9.06h-3.51v-1.21h8.6v1.21H796.32z M812.4,114.21v-8.5l-4.25,8.5h-0.45l-4.25-8.5
			v8.5h-1.59v-10.28h2.43l3.62,7.48l3.62-7.48h2.43v10.28H812.4z"/>
	</g>
</g>
<g>
	<path class="st1" d="M171.2,144.43l-30.27-65.1c-14.78-1.64-30.22,4.63-39.31,17.63c-13.27,18.98-8.57,45.17,10.5,58.5
		s45.28,8.75,58.55-10.22C170.85,144.97,171.02,144.7,171.2,144.43z"/>
</g>
<g>
	<polygon class="st2" points="230.98,132.53 213.07,132.57 213.07,107.44 198.45,107.44 198.45,82.09 198.03,81.35 173.85,81.33 
		173.85,160.81 244.19,160.83 	"/>
</g>
<g>
	<polygon class="st4" points="67.88,80.88 65.98,80.88 27.91,161.28 28.65,161.28 36.87,161.28 96.78,161.28 104.66,161.28 
		105.4,161.28 	"/>
</g>
</svg>
