<?xml version="1.0" encoding="UTF-8" standalone="no"?>
<!DOCTYPE svg PUBLIC "-//W3C//DTD SVG 1.1//EN" "http://www.w3.org/Graphics/SVG/1.1/DTD/svg11.dtd">
<svg width="100%" height="100%" viewBox="0 0 842 256" version="1.1" xmlns="http://www.w3.org/2000/svg" xmlns:xlink="http://www.w3.org/1999/xlink" xml:space="preserve" xmlns:serif="http://www.serif.com/" style="fill-rule:evenodd;clip-rule:evenodd;stroke-linejoin:round;stroke-miterlimit:2;">
    <g>
        <g>
            <g>
                <path d="M441.01,103.67L441.01,99.85C438.63,102.71 434.02,104.62 429.09,104.62C423.21,104.62 415.9,100.65 415.9,91.99C415.9,82.7 423.21,79.92 429.09,79.92C434.17,79.92 438.7,81.51 441.01,84.37L441.01,79.52C441.01,76.18 438.15,73.96 433.23,73.96C429.42,73.96 425.44,75.39 422.35,78.01L417.98,70.31C422.91,66.1 429.5,64.35 435.38,64.35C444.59,64.35 453.25,67.77 453.25,79.68L453.25,103.67L441.01,103.67ZM441.01,90.4C439.74,88.65 436.88,87.7 434.18,87.7C430.92,87.7 428.06,89.13 428.06,92.15C428.06,95.17 430.92,96.6 434.18,96.6C436.88,96.6 439.74,95.65 441.01,93.82L441.01,90.4Z" style="fill:white;fill-rule:nonzero;"/>
                <path d="M477.97,64.34C486.23,64.34 491.39,67.99 493.7,71.41L485.76,78.8C484.25,76.58 481.79,75.15 478.53,75.15C473.45,75.15 469.55,78.65 469.55,84.44C469.55,90.24 473.44,93.81 478.53,93.81C481.79,93.81 484.25,92.22 485.76,90.08L493.7,97.55C491.4,100.89 486.23,104.62 477.97,104.62C465.97,104.62 457,96.52 457,84.44C457,72.45 465.97,64.34 477.97,64.34Z" style="fill:white;fill-rule:nonzero;"/>
                <path d="M513.51,64.34C524.87,64.34 533.13,72.68 533.13,85.71L533.13,88.33L505.8,88.33C506.52,91.9 509.85,95.16 515.57,95.16C518.99,95.16 522.8,93.81 524.94,91.9L530.1,99.53C526.29,102.95 519.93,104.61 514.05,104.61C502.21,104.61 493.08,96.91 493.08,84.43C493.09,73.32 501.51,64.34 513.51,64.34ZM505.64,80.39L521.45,80.39C521.13,77.69 519.15,73.8 513.51,73.8C508.19,73.8 506.12,77.61 505.64,80.39Z" style="fill:white;fill-rule:nonzero;"/>
            </g>
            <g>
                <path d="M420.99,161.86C423.85,164.4 429.97,166.94 434.49,166.94C438.14,166.94 439.65,165.75 439.65,164.08C439.65,162.09 437.03,161.38 433.06,160.74C426.55,159.63 417.33,158.28 417.33,148.51C417.33,141.76 423.13,135.88 433.77,135.88C440.2,135.88 445.68,137.95 449.82,140.96L445.13,149.06C442.83,146.84 438.46,144.85 433.85,144.85C430.99,144.85 429.01,145.8 429.01,147.47C429.01,149.22 431.08,149.85 435.13,150.57C441.64,151.68 451.34,153.27 451.34,163.44C451.34,170.75 444.91,176.15 433.86,176.15C427.03,176.15 419.96,173.85 415.91,170.27L420.99,161.86Z" style="fill:white;fill-rule:nonzero;"/>
                <path d="M459.52,164.88L459.52,147.48L453.17,147.48L453.17,136.84L459.52,136.84L459.52,126.36L471.67,126.36L471.67,136.84L479.45,136.84L479.45,147.48L471.67,147.48L471.67,161.46C471.67,163.68 472.94,165.35 475.09,165.35C476.44,165.35 477.79,164.87 478.19,164.4L480.57,173.61C479.06,175.04 476.04,176.15 471.51,176.15C463.73,176.16 459.52,172.27 459.52,164.88Z" style="fill:white;fill-rule:nonzero;"/>
                <path d="M484.38,175.2L484.38,136.83L496.61,136.83L496.61,141.68C499.15,138.58 504,135.88 508.61,135.88L508.61,147.72C507.89,147.48 506.86,147.32 505.59,147.32C502.41,147.32 498.2,148.67 496.61,150.89L496.61,175.2L484.38,175.2Z" style="fill:white;fill-rule:nonzero;"/>
                <path d="M535.3,175.21L535.3,171.39C532.92,174.25 528.31,176.16 523.38,176.16C517.5,176.16 510.19,172.19 510.19,163.53C510.19,154.24 517.5,151.46 523.38,151.46C528.46,151.46 532.99,153.05 535.3,155.91L535.3,151.06C535.3,147.72 532.44,145.5 527.51,145.5C523.7,145.5 519.73,146.93 516.63,149.55L512.26,141.85C517.18,137.64 523.78,135.89 529.66,135.89C538.87,135.89 547.53,139.31 547.53,151.22L547.53,175.21L535.3,175.21ZM535.3,161.94C534.03,160.19 531.17,159.24 528.47,159.24C525.21,159.24 522.35,160.67 522.35,163.69C522.35,166.71 525.21,168.14 528.47,168.14C531.17,168.14 534.03,167.19 535.3,165.36L535.3,161.94Z" style="fill:white;fill-rule:nonzero;"/>
                <path d="M557.3,164.88L557.3,147.48L550.95,147.48L550.95,136.84L557.3,136.84L557.3,126.36L569.45,126.36L569.45,136.84L577.24,136.84L577.24,147.48L569.45,147.48L569.45,161.46C569.45,163.68 570.72,165.35 572.87,165.35C574.22,165.35 575.57,164.87 575.97,164.4L578.35,173.61C576.84,175.04 573.82,176.15 569.29,176.15C561.51,176.16 557.3,172.27 557.3,164.88Z" style="fill:white;fill-rule:nonzero;"/>
                <path d="M601.15,135.88C612.51,135.88 620.77,144.22 620.77,157.25L620.77,159.87L593.44,159.87C594.16,163.44 597.49,166.7 603.21,166.7C606.63,166.7 610.44,165.35 612.58,163.44L617.74,171.07C613.93,174.49 607.57,176.15 601.69,176.15C589.85,176.15 580.72,168.45 580.72,155.97C580.74,144.86 589.16,135.88 601.15,135.88ZM593.29,151.93L609.1,151.93C608.78,149.23 606.8,145.34 601.16,145.34C595.83,145.34 593.76,149.15 593.29,151.93Z" style="fill:white;fill-rule:nonzero;"/>
                <path d="M630.94,176.32C633.88,179.5 638.17,180.77 642.62,180.77C646.67,180.77 652.39,179.1 652.39,171.95L652.39,169.01C649.21,172.74 645.4,174.57 641.03,174.57C631.66,174.57 624.11,168.14 624.11,155.19C624.11,142.56 631.42,135.89 641.03,135.89C645.32,135.89 649.29,137.56 652.39,141.37L652.39,136.84L664.54,136.84L664.54,171.79C664.54,187.44 652.15,190.77 642.62,190.77C636.03,190.77 630.55,189.1 625.62,185.05L630.94,176.32ZM652.39,150.1C650.88,148.03 647.62,146.68 645.08,146.68C640.23,146.68 636.66,149.62 636.66,155.18C636.66,160.82 640.23,163.76 645.08,163.76C647.62,163.76 650.88,162.41 652.39,160.34L652.39,150.1Z" style="fill:white;fill-rule:nonzero;"/>
                <path d="M669.55,125C669.55,121.11 672.65,118.01 676.54,118.01C680.43,118.01 683.53,121.11 683.53,125C683.53,128.89 680.43,131.99 676.54,131.99C672.64,131.99 669.55,128.89 669.55,125ZM670.42,175.2L670.42,136.83L682.65,136.83L682.65,175.2L670.42,175.2Z" style="fill:white;fill-rule:nonzero;"/>
                <path d="M707.67,135.88C719.03,135.88 727.29,144.22 727.29,157.25L727.29,159.87L699.96,159.87C700.68,163.44 704.01,166.7 709.73,166.7C713.14,166.7 716.96,165.35 719.1,163.44L724.26,171.07C720.45,174.49 714.09,176.15 708.21,176.15C696.37,176.15 687.24,168.45 687.24,155.97C687.26,144.86 695.68,135.88 707.67,135.88ZM699.81,151.93L715.62,151.93C715.3,149.23 713.32,145.34 707.68,145.34C702.35,145.34 700.29,149.15 699.81,151.93Z" style="fill:white;fill-rule:nonzero;"/>
                <path d="M735.16,161.86C738.02,164.4 744.14,166.94 748.66,166.94C752.31,166.94 753.82,165.75 753.82,164.08C753.82,162.09 751.2,161.38 747.23,160.74C740.72,159.63 731.5,158.28 731.5,148.51C731.5,141.76 737.3,135.88 747.94,135.88C754.37,135.88 759.85,137.95 763.99,140.96L759.3,149.06C757,146.84 752.63,144.85 748.02,144.85C745.16,144.85 743.18,145.8 743.18,147.47C743.18,149.22 745.25,149.85 749.3,150.57C755.81,151.68 765.51,153.27 765.51,163.44C765.51,170.75 759.08,176.15 748.03,176.15C741.2,176.15 734.13,173.85 730.08,170.27L735.16,161.86Z" style="fill:white;fill-rule:nonzero;"/>
                <path d="M767.56,123.38L767.56,132L766.05,132L766.05,123.38L762.71,123.38L762.71,122.23L770.89,122.23L770.89,123.38L767.56,123.38ZM782.84,131.99L782.84,123.91L778.8,131.99L778.37,131.99L774.33,123.91L774.33,131.99L772.82,131.99L772.82,122.22L775.13,122.22L778.57,129.33L782.01,122.22L784.32,122.22L784.32,131.99L782.84,131.99Z" style="fill:white;fill-rule:nonzero;"/>
            </g>
        </g>
        <g>
            <g>
                <g>
                    <path d="M280.81,152.97L241.45,68.32C222.24,66.19 202.15,74.35 190.33,91.25C173.08,115.93 179.19,149.98 203.98,167.32C228.77,184.66 262.86,178.7 280.11,154.03C280.36,153.67 280.58,153.32 280.81,152.97Z" style="fill:rgb(99,171,209);fill-rule:nonzero;"/>
                </g>
                <g>
                    <path d="M358.55,138.98L335.25,139.03L335.25,106.36L316.25,106.36L316.25,73.39L315.7,72.43L284.27,72.41L284.27,175.75L375.72,175.78L358.55,138.98Z" style="fill:rgb(249,40,73);fill-rule:nonzero;"/>
                </g>
                <g>
                    <path d="M146.48,71.23L144,71.23L94.49,175.78L195.25,175.78L146.48,71.23Z" style="fill:rgb(41,40,119);fill-rule:nonzero;"/>
                </g>
            </g>
            <g>
                <path d="M280.81,152.97L241.45,68.32C222.24,66.19 202.15,74.35 190.33,91.25C173.08,115.93 179.19,149.98 203.98,167.32C228.77,184.66 262.86,178.7 280.11,154.03C280.36,153.67 280.58,153.32 280.81,152.97Z" style="fill:rgb(99,171,209);fill-rule:nonzero;"/>
            </g>
            <g>
                <path d="M358.55,138.98L335.25,139.03L335.25,106.36L316.25,106.36L316.25,73.39L315.7,72.43L284.27,72.41L284.27,175.75L375.72,175.78L358.55,138.98Z" style="fill:rgb(249,40,73);fill-rule:nonzero;"/>
            </g>
            <g>
                <path d="M146.48,71.23L144,71.23L94.49,175.78L195.25,175.78L146.48,71.23Z" style="fill:white;fill-rule:nonzero;"/>
            </g>
        </g>
    </g>
</svg>
