<?xml version="1.0" encoding="UTF-8" standalone="no"?>
<!DOCTYPE svg PUBLIC "-//W3C//DTD SVG 1.1//EN" "http://www.w3.org/Graphics/SVG/1.1/DTD/svg11.dtd">
<svg width="100%" height="100%" viewBox="0 0 282 110" version="1.1" xmlns="http://www.w3.org/2000/svg" xmlns:xlink="http://www.w3.org/1999/xlink" xml:space="preserve" xmlns:serif="http://www.serif.com/" style="fill-rule:evenodd;clip-rule:evenodd;stroke-linejoin:round;stroke-miterlimit:2;">
    <g transform="matrix(1,0,0,1,-94.49,-67.987583)">
        <g>
            <g>
                <g>
                    <path d="M280.81,152.97L241.45,68.32C222.24,66.19 202.15,74.35 190.33,91.25C173.08,115.93 179.19,149.98 203.98,167.32C228.77,184.66 262.86,178.7 280.11,154.03C280.36,153.67 280.58,153.32 280.81,152.97Z" style="fill:rgb(99,171,209);fill-rule:nonzero;"/>
                </g>
                <g>
                    <path d="M358.55,138.98L335.25,139.03L335.25,106.36L316.25,106.36L316.25,73.39L315.7,72.43L284.27,72.41L284.27,175.75L375.72,175.78L358.55,138.98Z" style="fill:rgb(249,40,73);fill-rule:nonzero;"/>
                </g>
                <g>
                    <path d="M146.48,71.23L144,71.23L94.49,175.78L195.25,175.78L146.48,71.23Z" style="fill:rgb(41,40,119);fill-rule:nonzero;"/>
                </g>
            </g>
            <g>
                <path d="M280.81,152.97L241.45,68.32C222.24,66.19 202.15,74.35 190.33,91.25C173.08,115.93 179.19,149.98 203.98,167.32C228.77,184.66 262.86,178.7 280.11,154.03C280.36,153.67 280.58,153.32 280.81,152.97Z" style="fill:rgb(99,171,209);fill-rule:nonzero;"/>
            </g>
            <g>
                <path d="M358.55,138.98L335.25,139.03L335.25,106.36L316.25,106.36L316.25,73.39L315.7,72.43L284.27,72.41L284.27,175.75L375.72,175.78L358.55,138.98Z" style="fill:rgb(249,40,73);fill-rule:nonzero;"/>
            </g>
            <g>
                <path d="M146.48,71.23L144,71.23L94.49,175.78L195.25,175.78L146.48,71.23Z" style="fill:white;fill-rule:nonzero;"/>
            </g>
        </g>
    </g>
</svg>
